<svg width="25" height="24" viewBox="0 0 25 24" fill="none" xmlns="http://www.w3.org/2000/svg">
<g clip-path="url(#clip0_420_8187)">
<path d="M24.6454 12V11.994C24.6454 8.443 23.0994 5.254 20.6444 3.061L20.6324 3.051C20.6021 3.01834 20.5682 2.98916 20.5314 2.964L20.5294 2.963C18.3488 1.04877 15.5449 -0.00437842 12.6434 0.000999922C9.61139 0.000999922 6.84339 1.127 4.73339 2.985L4.74639 2.974C4.72103 2.99338 4.69759 3.01515 4.67639 3.039C3.40797 4.16223 2.39267 5.54314 1.69773 7.08833C1.0028 8.63352 0.644102 10.3087 0.645389 12.003C0.645389 15.553 2.18939 18.742 4.64239 20.936L4.65439 20.946C4.6863 20.9819 4.72182 21.0144 4.76039 21.043L4.76239 21.044C6.94223 22.9556 9.74407 24.0073 12.6434 24.002C15.5563 24.0065 18.3701 22.9451 20.5544 21.018L20.5414 21.029C21.8318 19.9071 22.8663 18.521 23.5747 16.9647C24.283 15.4083 24.6489 13.718 24.6474 12.008V12.001L24.6454 12ZM20.1834 19.805C19.5887 19.3245 18.9495 18.9019 18.2744 18.543L18.2094 18.511C18.8224 16.744 19.1914 14.707 19.2264 12.588V12.572H23.4874C23.3441 15.3135 22.1641 17.898 20.1864 19.802L20.1834 19.805ZM13.2174 18.3C14.5004 18.369 15.6994 18.651 16.8054 19.11L16.7334 19.084C15.8474 21.104 14.6004 22.492 13.2174 22.797V18.3ZM13.2174 17.156V12.572H18.0854C18.0467 14.4702 17.7175 16.3514 17.1094 18.15L17.1484 18.019C15.9071 17.508 14.5865 17.2163 13.2454 17.157L13.2184 17.156H13.2174ZM13.2174 11.428V6.844C14.5946 6.78135 15.9504 6.47986 17.2244 5.953L17.1454 5.982C17.7004 7.601 18.0414 9.467 18.0854 11.407V11.428H13.2174ZM13.2174 5.7V1.205C14.6004 1.51 15.8474 2.892 16.7334 4.918C15.6994 5.348 14.5004 5.629 13.2464 5.699L13.2174 5.7ZM16.0714 1.7C17.2501 2.09228 18.3522 2.68497 19.3294 3.452L19.3064 3.434C18.8634 3.782 18.3664 4.11 17.8424 4.395L17.7864 4.423C17.3641 3.42315 16.7818 2.49873 16.0624 1.686L16.0714 1.697V1.7ZM12.0714 1.208V5.7C10.8379 5.63715 9.62427 5.36318 8.48339 4.89L8.55539 4.916C9.44539 2.896 10.6904 1.509 12.0734 1.204L12.0714 1.208ZM7.50339 4.42C6.96145 4.12812 6.44497 3.79128 5.95939 3.413L5.98339 3.431C6.93206 2.68645 7.99977 2.10763 9.14139 1.719L9.21739 1.696C8.51754 2.48723 7.94747 3.38435 7.52839 4.354L7.50339 4.42ZM12.0734 6.843V11.427H7.20539C7.24939 9.466 7.59039 7.6 8.18439 5.85L8.14539 5.981C9.38675 6.48951 10.7063 6.78076 12.0464 6.842L12.0734 6.843ZM12.0734 12.571V17.155C10.6962 17.2177 9.34036 17.5191 8.06639 18.046L8.14539 18.017C7.59039 16.399 7.24939 14.532 7.20539 12.592V12.571H12.0734ZM12.0734 18.299V22.794C10.6904 22.489 9.44339 21.107 8.55739 19.081C9.59139 18.651 10.7904 18.371 12.0444 18.301L12.0734 18.299ZM9.22339 22.299C8.04577 21.9061 6.94392 21.3149 5.96539 20.551L5.98939 20.569C6.43239 20.221 6.92939 19.893 7.45339 19.608L7.50939 19.58C7.92857 20.58 8.51081 21.5036 9.23239 22.313L9.22339 22.303V22.299ZM17.7874 19.579C18.3674 19.894 18.8644 20.221 19.3314 20.586L19.3074 20.568C18.3587 21.3126 17.291 21.8914 16.1494 22.28L16.0734 22.303C16.7732 21.5121 17.3432 20.6153 17.7624 19.646L17.7874 19.581V19.579ZM23.4874 11.428H19.2264C19.1951 9.35901 18.8381 7.30786 18.1684 5.35L18.2094 5.488C18.9157 5.11597 19.5845 4.6766 20.2064 4.176L20.1824 4.194C22.1567 6.09026 23.3373 8.66552 23.4854 11.399L23.4874 11.428ZM5.10739 4.195C5.68339 4.663 6.33039 5.092 7.01639 5.457L7.08139 5.489C6.46839 7.256 6.09939 9.293 6.06439 11.412V11.428H1.80239C1.94569 8.6865 3.1257 6.10197 5.10339 4.198L5.10739 4.195ZM1.80339 12.572H6.06439C6.09566 14.641 6.4527 16.6921 7.12239 18.65L7.08139 18.512C6.33039 18.911 5.68439 19.34 5.08439 19.824L5.10839 19.806C3.13405 17.9097 1.95347 15.3345 1.80539 12.601L1.80439 12.573L1.80339 12.572Z" fill="white"/>
</g>
<defs>
<clipPath id="clip0_420_8187">
<rect width="24" height="24" fill="white" transform="translate(0.645386)"/>
</clipPath>
</defs>
</svg>
