<svg width="51" height="51" viewBox="0 0 51 51" fill="none" xmlns="http://www.w3.org/2000/svg">
<path opacity="0.1" fill-rule="evenodd" clip-rule="evenodd" d="M0.45874 25.8044C0.45874 11.9973 11.7543 0.804443 25.6881 0.804443C39.6219 0.804443 50.9175 11.9973 50.9175 25.8044C50.9175 39.6116 39.6219 50.8044 25.6881 50.8044C11.7543 50.8044 0.45874 39.6116 0.45874 25.8044Z" fill="white"/>
<path fill-rule="evenodd" clip-rule="evenodd" d="M39.1437 25.786C39.1437 26.6877 39.0511 27.5881 38.8691 28.4659C38.6917 29.3228 38.4289 30.164 38.0846 30.9682C37.7482 31.7582 37.331 32.5195 36.8435 33.2294C36.3632 33.9348 35.8099 34.5967 35.2022 35.2C34.5931 35.8007 33.9229 36.3474 33.2113 36.8253C32.4925 37.3051 31.7231 37.7179 30.9255 38.0528C30.1127 38.3921 29.2618 38.6522 28.3978 38.8277C27.5108 39.0085 26.5988 39.1008 25.6875 39.1008C24.7755 39.1008 23.8635 39.0085 22.9778 38.8277C22.1125 38.6522 21.2616 38.3921 20.4495 38.0528C19.6519 37.7179 18.8818 37.3051 18.163 36.8253C17.4514 36.3474 16.7812 35.8007 16.1734 35.2C15.565 34.5967 15.0118 33.9348 14.5308 33.2294C14.0459 32.5195 13.628 31.7581 13.2903 30.9682C12.946 30.164 12.6825 29.3227 12.5044 28.4659C12.3244 27.5881 12.2324 26.6877 12.2324 25.786C12.2324 24.8836 12.3244 23.9812 12.5045 23.1054C12.6826 22.2485 12.946 21.406 13.2903 20.6031C13.628 19.8125 14.046 19.0506 14.5309 18.3406C15.0118 17.6346 15.5651 16.974 16.1735 16.37C16.7813 15.7692 17.4514 15.2238 18.163 14.7466C18.8818 14.2648 19.6519 13.8521 20.4495 13.5166C21.2617 13.1765 22.1125 12.9158 22.9779 12.7416C23.8636 12.5622 24.7755 12.4711 25.6875 12.4711C26.5988 12.4711 27.5108 12.5622 28.3978 12.7416C29.2618 12.9159 30.1127 13.1765 30.9255 13.5166C31.7231 13.852 32.4926 14.2648 33.2113 14.7466C33.9229 15.2238 34.5932 15.7692 35.2022 16.37C35.81 16.974 36.3632 17.6346 36.8435 18.3406C37.331 19.0506 37.7482 19.8126 38.0846 20.6031C38.4289 21.406 38.6917 22.2485 38.8691 23.1054C39.0511 23.9812 39.1437 24.8836 39.1437 25.786ZM20.7845 15.5014C17.5801 16.9987 15.1884 19.9204 14.4426 23.4416C14.7456 23.4442 19.5342 23.504 25.0514 22.0535C23.0625 18.557 20.9376 15.7037 20.7845 15.5014ZM26.0034 23.8044C20.0867 25.5571 14.4091 25.431 14.2055 25.4232C14.2022 25.5454 14.1963 25.6637 14.1963 25.786C14.1963 28.707 15.31 31.3699 17.1405 33.3835C17.1365 33.3776 20.2812 27.8573 26.4824 25.8731C26.6322 25.8237 26.7847 25.7794 26.9358 25.7366C26.6474 25.0904 26.3326 24.4428 26.0034 23.8044ZM33.2764 17.2523C31.2533 15.4871 28.5969 14.4164 25.6874 14.4164C24.7538 14.4164 23.8477 14.5282 22.9797 14.7349C23.1518 14.9638 25.3103 17.7971 27.2755 21.3676C31.6114 19.7592 33.2481 17.2938 33.2764 17.2523ZM27.7191 27.6207C27.6935 27.629 27.6679 27.6363 27.6429 27.6454C20.8629 29.9841 18.6488 34.6973 18.6249 34.7488C20.5757 36.2499 23.0225 37.1556 25.6875 37.1556C27.2788 37.1556 28.7946 36.835 30.1738 36.2545C30.0036 35.2611 29.3361 31.7789 27.7191 27.6207ZM32.1088 35.2156C34.689 33.4927 36.5215 30.757 37.0326 27.5881C36.7961 27.5127 33.5812 26.5056 29.8721 27.094C31.3794 31.1925 31.9918 34.5303 32.1088 35.2156ZM28.16 23.0619C28.4267 23.6041 28.685 24.156 28.9234 24.7106C29.0082 24.9096 29.091 25.1046 29.1718 25.2996C33.1194 24.8081 37.0084 25.6351 37.1747 25.6689C37.1484 22.9734 36.174 20.4997 34.5616 18.5629C34.5399 18.5934 32.6969 21.2284 28.16 23.0619Z" fill="white"/>
</svg>
