<svg width="51" height="51" viewBox="0 0 51 51" fill="none" xmlns="http://www.w3.org/2000/svg">
<path opacity="0.1" fill-rule="evenodd" clip-rule="evenodd" d="M0.376221 25.8044C0.376221 11.9973 11.6718 0.804443 25.6056 0.804443C39.5394 0.804443 50.8349 11.9973 50.8349 25.8044C50.8349 39.6116 39.5394 50.8044 25.6056 50.8044C11.6718 50.8044 0.376221 39.6116 0.376221 25.8044Z" fill="white"/>
<path fill-rule="evenodd" clip-rule="evenodd" d="M36.1195 17.21C37.2774 17.5249 38.1894 18.4526 38.4988 19.6308C39.0612 21.766 39.0612 26.2212 39.0612 26.2212C39.0612 26.2212 39.0612 30.6762 38.4988 32.8115C38.1894 33.9897 37.2774 34.9174 36.1195 35.2324C34.021 35.8045 25.6056 35.8045 25.6056 35.8045C25.6056 35.8045 17.1901 35.8045 15.0915 35.2324C13.9335 34.9174 13.0216 33.9897 12.7121 32.8115C12.1499 30.6762 12.1499 26.2212 12.1499 26.2212C12.1499 26.2212 12.1499 21.766 12.7121 19.6308C13.0216 18.4526 13.9335 17.5249 15.0915 17.21C17.1901 16.6378 25.6056 16.6378 25.6056 16.6378C25.6056 16.6378 34.021 16.6378 36.1195 17.21ZM23.0827 22.4711V30.8044L29.8105 26.6379L23.0827 22.4711Z" fill="white"/>
</svg>
