<svg width="51" height="51" viewBox="0 0 51 51" fill="none" xmlns="http://www.w3.org/2000/svg">
<path opacity="0.1" fill-rule="evenodd" clip-rule="evenodd" d="M0 25.8044C0 11.9973 11.2956 0.804443 25.2294 0.804443C39.1631 0.804443 50.4587 11.9973 50.4587 25.8044C50.4587 39.6116 39.1631 50.8044 25.2294 50.8044C11.2956 50.8044 0 39.6116 0 25.8044Z" fill="white"/>
<path fill-rule="evenodd" clip-rule="evenodd" d="M25.2306 12.4711C21.5762 12.4711 21.1176 12.487 19.6823 12.5517C18.2498 12.6167 17.2721 12.8414 16.4165 13.1711C15.5315 13.5117 14.7808 13.9673 14.0329 14.7087C13.2844 15.4498 12.8246 16.1937 12.4798 17.0703C12.1462 17.9184 11.9192 18.8876 11.8547 20.3065C11.7905 21.7287 11.7737 22.1835 11.7737 25.8046C11.7737 29.4257 11.7899 29.8788 11.855 31.301C11.9209 32.7205 12.1476 33.6894 12.4801 34.5372C12.8241 35.4141 13.2838 36.158 14.032 36.8992C14.7797 37.6408 15.5304 38.0975 16.4148 38.4381C17.2709 38.7678 18.249 38.9925 19.6812 39.0575C21.1165 39.1222 21.5748 39.1381 25.2289 39.1381C28.8836 39.1381 29.3408 39.1222 30.7761 39.0575C32.2086 38.9925 33.1875 38.7678 34.0436 38.4381C34.9283 38.0975 35.6779 37.6408 36.4255 36.8992C37.174 36.158 37.6338 35.4141 37.9786 34.5375C38.3094 33.6894 38.5364 32.7202 38.6037 31.3013C38.6682 29.8791 38.685 29.4257 38.685 25.8046C38.685 22.1835 38.6682 21.729 38.6037 20.3068C38.5364 18.8873 38.3094 17.9184 37.9786 17.0706C37.6338 16.1937 37.174 15.4498 36.4255 14.7087C35.6771 13.967 34.9286 13.5114 34.0427 13.1711C33.1849 12.8414 32.2066 12.6167 30.7741 12.5517C29.3388 12.487 28.8819 12.4711 25.2264 12.4711H25.2306ZM24.0234 14.8739C24.3817 14.8733 24.7815 14.8739 25.2305 14.8739C28.8232 14.8739 29.2491 14.8867 30.6678 14.9506C31.9797 15.01 32.6918 15.2272 33.1661 15.4097C33.794 15.6514 34.2417 15.9403 34.7124 16.407C35.1833 16.8736 35.4749 17.3181 35.7193 17.9403C35.9035 18.4098 36.123 19.1153 36.1827 20.4153C36.2472 21.8209 36.2612 22.2431 36.2612 25.8015C36.2612 29.3599 36.2472 29.7821 36.1827 31.1877C36.1227 32.4877 35.9035 33.1933 35.7193 33.6627C35.4755 34.2849 35.1833 34.728 34.7124 35.1944C34.2414 35.6611 33.7943 35.9499 33.1661 36.1916C32.6923 36.375 31.9797 36.5916 30.6678 36.6511C29.2493 36.715 28.8232 36.7288 25.2305 36.7288C21.6376 36.7288 21.2117 36.715 19.7933 36.6511C18.4813 36.5911 17.7693 36.3738 17.2947 36.1913C16.6668 35.9497 16.2182 35.6608 15.7473 35.1941C15.2763 34.7274 14.9848 34.2841 14.7403 33.6616C14.5562 33.1921 14.3367 32.4866 14.277 31.1866C14.2125 29.781 14.1996 29.3588 14.1996 25.7982C14.1996 22.2376 14.2125 21.8176 14.277 20.412C14.337 19.112 14.5562 18.4064 14.7403 17.9364C14.9842 17.3142 15.2763 16.8697 15.7473 16.4031C16.2182 15.9364 16.6668 15.6475 17.2947 15.4053C17.769 15.222 18.4813 15.0053 19.7933 14.9456C21.0346 14.89 21.5156 14.8733 24.0234 14.8706V14.8739ZM32.4131 17.0878C31.5217 17.0878 30.7984 17.8037 30.7984 18.6873C30.7984 19.5706 31.5217 20.2873 32.4131 20.2873C33.3046 20.2873 34.0278 19.5706 34.0278 18.6873C34.0278 17.8039 33.3046 17.0878 32.4131 17.0878ZM25.2306 18.9573C21.4145 18.9573 18.3205 22.0231 18.3205 25.8046C18.3205 29.586 21.4145 32.6505 25.2306 32.6505C29.0467 32.6505 32.1396 29.586 32.1396 25.8046C32.1396 22.0231 29.0467 18.9573 25.2306 18.9573ZM25.2306 21.3601C27.7076 21.3601 29.7158 23.3498 29.7158 25.8046C29.7158 28.259 27.7076 30.2491 25.2306 30.2491C22.7533 30.2491 20.7453 28.259 20.7453 25.8046C20.7453 23.3498 22.7533 21.3601 25.2306 21.3601Z" fill="white"/>
</svg>
