<svg width="52" height="51" viewBox="0 0 52 51" fill="none" xmlns="http://www.w3.org/2000/svg">
<path opacity="0.1" fill-rule="evenodd" clip-rule="evenodd" d="M0.91748 25.8044C0.91748 11.9973 12.213 0.804443 26.1468 0.804443C40.0806 0.804443 51.3762 11.9973 51.3762 25.8044C51.3762 39.6116 40.0806 50.8044 26.1468 50.8044C12.213 50.8044 0.91748 39.6116 0.91748 25.8044Z" fill="white"/>
<path fill-rule="evenodd" clip-rule="evenodd" d="M25.3912 21.1248L25.4441 21.9898L24.5617 21.8839C21.3499 21.4778 18.544 20.1008 16.1616 17.7881L14.9968 16.6406L14.6968 17.488C14.0615 19.377 14.4674 21.3719 15.791 22.7136C16.4969 23.4551 16.338 23.561 15.1204 23.1197C14.6968 22.9784 14.3262 22.8725 14.2909 22.9255C14.1674 23.0491 14.5909 24.6556 14.9263 25.2912C15.3851 26.1739 16.3204 27.0389 17.3439 27.5509L18.2087 27.9569L17.1851 27.9746C16.1969 27.9746 16.1616 27.9922 16.2675 28.363C16.6204 29.5105 18.0145 30.7286 19.5675 31.2583L20.6617 31.629L19.7087 32.1939C18.2969 33.006 16.638 33.4651 14.9792 33.5004C14.1851 33.518 13.5321 33.5886 13.5321 33.6416C13.5321 33.8181 15.6851 34.8068 16.9381 35.1952C20.697 36.3427 25.1618 35.8484 28.5148 33.8888C30.8972 32.4941 33.2796 29.7224 34.3913 27.0389C34.9914 25.6089 35.5914 22.9961 35.5914 21.7427C35.5914 20.9306 35.6443 20.8246 36.6326 19.8537C37.2149 19.2887 37.762 18.6708 37.8679 18.4943C38.0444 18.1588 38.0267 18.1588 37.1267 18.459C35.6267 18.9886 35.4149 18.918 36.1561 18.1235C36.7032 17.5586 37.3561 16.5347 37.3561 16.2345C37.3561 16.1816 37.0914 16.2698 36.7914 16.4287C36.4737 16.6053 35.7678 16.8701 35.2384 17.029L34.2855 17.3291L33.4207 16.7465C32.9443 16.4287 32.2737 16.0757 31.9207 15.9697C31.0207 15.7226 29.6442 15.7579 28.8324 16.0403C26.6265 16.8348 25.2323 18.8827 25.3912 21.1248Z" fill="white"/>
</svg>
